<?xml version="1.0" encoding="iso-8859-1"?>
<!-- Generator: Adobe Illustrator 19.0.0, SVG Export Plug-In . SVG Version: 6.00 Build 0)  -->
<svg version="1.1" id="Layer_1" xmlns="http://www.w3.org/2000/svg" xmlns:xlink="http://www.w3.org/1999/xlink" x="0px" y="0px"
	 viewBox="0 0 511.999 511.999" style="enable-background:new 0 0 511.999 511.999;" xml:space="preserve">
<g>
	<path style="fill:#1F544A;" d="M334.546,168.681c-3.507,0-6.659-2.443-7.42-6.01c-0.876-4.101,1.739-8.138,5.841-9.014
		l29.612-6.327c9.6-2.052,17.332-8.786,20.681-18.015l14.361-39.571c7.911-21.798,25.08-38.467,47.102-45.732l32.407-10.689
		c3.982-1.314,8.278,0.85,9.592,4.834c1.313,3.984-0.85,8.279-4.834,9.592l-32.407,10.689c-17.571,5.796-31.268,19.095-37.58,36.488
		l-14.361,39.571c-5.148,14.184-17.031,24.536-31.788,27.688l-29.612,6.327C335.605,168.627,335.072,168.681,334.546,168.681z"/>
	<path style="fill:#1F544A;" d="M504.405,357.995c-0.741,0-1.495-0.109-2.24-0.339l-44.867-13.835
		c-14.11-4.351-25.268-14.741-30.612-28.506l-17.235-44.394c-4.08-10.509-13.116-18.101-24.169-20.309l-27.323-5.457
		c-4.114-0.822-6.782-4.822-5.961-8.936c0.821-4.114,4.825-6.778,8.935-5.961l27.323,5.457c16.17,3.23,29.388,14.335,35.356,29.708
		l17.235,44.394c3.653,9.41,11.281,16.513,20.927,19.487l44.867,13.835c4.008,1.237,6.257,5.488,5.02,9.496
		C510.654,355.899,507.65,357.995,504.405,357.995z"/>
	<path style="fill:#1F544A;" d="M504.405,490.046c-0.741,0-1.495-0.109-2.24-0.339l-44.867-13.835
		c-14.11-4.351-25.268-14.741-30.612-28.506l-17.235-44.394c-4.08-10.509-13.116-18.101-24.169-20.309l-27.323-5.457
		c-4.114-0.822-6.782-4.823-5.961-8.936c0.821-4.114,4.825-6.779,8.935-5.961l27.323,5.457c16.17,3.229,29.388,14.335,35.356,29.708
		l17.235,44.394c3.653,9.41,11.281,16.513,20.927,19.487l44.867,13.835c4.008,1.237,6.257,5.488,5.02,9.496
		C510.654,487.949,507.65,490.046,504.405,490.046z"/>
	<path style="fill:#1F544A;" d="M186.195,170.709c-0.526,0-1.059-0.055-1.594-0.169l-38.352-8.354
		c-14.757-3.153-26.64-13.503-31.788-27.688l-14.362-39.571c-6.312-17.393-20.009-30.692-37.58-36.488L30.112,47.749
		c-3.984-1.313-6.148-5.608-4.834-9.592c1.313-3.984,5.612-6.147,9.592-4.834l32.407,10.689
		c22.023,7.264,39.191,23.932,47.102,45.732l14.361,39.571c3.349,9.229,11.081,15.963,20.681,18.015l38.352,8.354
		c4.102,0.876,6.717,4.913,5.841,9.014C192.853,168.266,189.702,170.709,186.195,170.709z"/>
	<path style="fill:#1F544A;" d="M7.595,357.995c-3.246,0-6.249-2.096-7.256-5.359c-1.237-4.008,1.012-8.26,5.02-9.496l44.868-13.835
		c9.646-2.974,17.274-10.077,20.927-19.487l17.235-44.394c5.969-15.373,19.186-26.478,35.356-29.708l33.367-6.445
		c4.115-0.817,8.115,1.847,8.935,5.961c0.822,4.114-1.847,8.114-5.961,8.936l-33.367,6.444c-11.055,2.208-20.089,9.8-24.169,20.309
		l-17.235,44.395c-5.344,13.765-16.501,24.155-30.612,28.506L9.836,357.656C9.09,357.886,8.337,357.995,7.595,357.995z"/>
	<path style="fill:#1F544A;" d="M7.595,490.046c-3.246,0-6.249-2.096-7.256-5.359c-1.237-4.008,1.012-8.26,5.02-9.496l44.868-13.835
		c9.646-2.974,17.274-10.077,20.927-19.487l17.235-44.394c5.969-15.373,19.186-26.478,35.356-29.708l31.865-6.475
		c4.115-0.818,8.115,1.847,8.935,5.961c0.822,4.114-1.847,8.114-5.961,8.936l-31.865,6.474c-11.055,2.208-20.089,9.8-24.169,20.309
		l-17.235,44.394c-5.344,13.765-16.501,24.155-30.612,28.506L9.836,489.706C9.09,489.936,8.337,490.046,7.595,490.046z"/>
	<polygon style="fill:#1F544A;" points="208.808,99.961 208.808,21.954 232.221,58.478 232.221,100.81 	"/>
	<polyline style="fill:#1F544A;" points="305.362,99.961 305.362,21.954 281.948,58.478 281.948,99.961 305.362,99.961 	"/>
</g>
<path style="fill:#328777;" d="M208.808,135.274V99.961c0-26.662,21.614-48.278,48.278-48.278s48.278,21.614,48.278,48.278v33.295
	L208.808,135.274z"/>
<path style="opacity:0.42;fill:#1F544A;enable-background:new    ;" d="M279.672,56.605c4.281,7.207,6.746,15.619,6.746,24.611
	v9.271c0,13.348-10.673,24.246-24.018,24.526l-52.249,1.092v19.169l96.555-2.017V99.961
	C306.705,80.923,295.68,64.465,279.672,56.605z"/>
<path style="fill:#3EAC92;" d="M177.896,231.948v-43.487l0,0c0-44.293,36.239-80.531,80.531-80.531l0,0
	c44.293,0,80.531,36.239,80.531,80.531l0,0v43.487H177.896z"/>
<path style="opacity:0.29;fill:#1F544A;enable-background:new    ;" d="M291.375,115.047c10.724,13.683,17.152,30.872,17.152,49.501
	l0,0v10.1c0,18.439-14.948,33.387-33.387,33.387h-97.245v23.913h161.063v-43.487l0,0
	C338.958,155.895,319.354,127.702,291.375,115.047z"/>
<path style="fill:#328777;" d="M281.706,471.664h-50.586c-42.935,0-77.74-34.806-77.74-77.739V235.096
	c0-7.332,5.944-13.276,13.276-13.276H346.17c7.332,0,13.276,5.944,13.276,13.276v158.827
	C359.446,436.858,324.641,471.664,281.706,471.664z"/>
<g>
	<polygon style="fill:#57EECF;" points="309.082,221.821 256.414,274.49 203.745,221.821 	"/>
	<path style="fill:#57EECF;" d="M213.048,204.56c-4.195,0-7.595-3.401-7.595-7.595v-18.798c0-29.21,23.764-52.976,52.975-52.976
		c4.195,0,7.595,3.401,7.595,7.595c0,4.195-3.401,7.595-7.595,7.595c-20.834,0-37.784,16.95-37.784,37.784v18.799
		C220.643,201.16,217.242,204.56,213.048,204.56z"/>
	<path style="fill:#57EECF;" d="M213.046,442.74c-1.838,0-3.682-0.663-5.141-2.006c-17.516-16.121-27.562-39.012-27.562-62.804
		v-93.055c0-4.195,3.401-7.595,7.595-7.595c4.195,0,7.595,3.401,7.595,7.595v93.055c0,19.556,8.259,38.373,22.658,51.627
		c3.087,2.841,3.286,7.646,0.445,10.733C217.139,441.915,215.095,442.74,213.046,442.74z"/>
</g>
<path style="opacity:0.29;fill:#1F544A;enable-background:new    ;" d="M346.171,221.821h-89.757v249.842h25.293
	c42.935,0,77.74-34.806,77.74-77.74V235.096C359.446,227.764,353.503,221.821,346.171,221.821z"/>
<g>
</g>
<g>
</g>
<g>
</g>
<g>
</g>
<g>
</g>
<g>
</g>
<g>
</g>
<g>
</g>
<g>
</g>
<g>
</g>
<g>
</g>
<g>
</g>
<g>
</g>
<g>
</g>
<g>
</g>
</svg>
